<svg xmlns="http://www.w3.org/2000/svg" xmlns:xlink="http://www.w3.org/1999/xlink" width="250" zoomAndPan="magnify" viewBox="0 0 187.5 187.499992" height="250" preserveAspectRatio="xMidYMid meet" version="1.0"><defs><g/><clipPath id="9e2397a5de"><path d="M 58.003906 62.25 L 137 62.25 L 137 89 L 58.003906 89 Z M 58.003906 62.25 " clip-rule="nonzero"/></clipPath><clipPath id="3179df5acd"><path d="M 105 62.25 L 150.757812 62.25 L 150.757812 89 L 105 89 Z M 105 62.25 " clip-rule="nonzero"/></clipPath><clipPath id="dd2573e405"><rect x="0" width="127" y="0" height="23"/></clipPath><clipPath id="51a522f45d"><rect x="0" width="77" y="0" height="12"/></clipPath><clipPath id="839b63ebeb"><path d="M 9 2 L 12.703125 2 L 12.703125 7 L 9 7 Z M 9 2 " clip-rule="nonzero"/></clipPath><clipPath id="9ca2ea4f2f"><rect x="0" width="13" y="0" height="9"/></clipPath></defs><path fill="#ffffff" d="M 0 0 L 187 0 L 187 187 L 0 187 Z M 0 0 " fill-opacity="1" fill-rule="nonzero"/><path fill="#000000" d="M 0 0 L 187 0 L 187 187 L 0 187 Z M 0 0 " fill-opacity="1" fill-rule="nonzero"/><g clip-path="url(#9e2397a5de)"><path fill="#b59d14" d="M 59.417969 88.699219 L 97.339844 64.164062 C 97.339844 64.164062 135.261719 88.699219 135.261719 88.699219 C 135.65625 88.953125 136.179688 88.839844 136.433594 88.449219 C 136.6875 88.054688 136.574219 87.53125 136.183594 87.277344 C 136.183594 87.277344 97.800781 62.445312 97.800781 62.445312 C 97.519531 62.265625 97.160156 62.265625 96.882812 62.445312 C 96.882812 62.445312 58.5 87.277344 58.5 87.277344 C 58.105469 87.53125 57.992188 88.054688 58.246094 88.449219 C 58.5 88.839844 59.027344 88.953125 59.417969 88.699219 Z M 59.417969 88.699219 " fill-opacity="1" fill-rule="evenodd"/></g><g clip-path="url(#3179df5acd)"><path fill="#b59d14" d="M 106.714844 69.183594 L 113.691406 64.667969 C 113.691406 64.667969 149.542969 88.1875 149.542969 88.1875 C 149.9375 88.445312 150.460938 88.335938 150.71875 87.945312 C 150.972656 87.554688 150.863281 87.03125 150.472656 86.773438 C 150.472656 86.773438 114.160156 62.949219 114.160156 62.949219 C 113.878906 62.765625 113.515625 62.765625 113.234375 62.945312 C 113.234375 62.945312 110.148438 64.945312 105.796875 67.757812 C 105.402344 68.011719 105.289062 68.539062 105.546875 68.929688 C 105.796875 69.324219 106.324219 69.4375 106.714844 69.183594 Z M 106.714844 69.183594 " fill-opacity="1" fill-rule="evenodd"/></g><path fill="#b59d14" d="M 80.015625 74.613281 L 80.015625 68.214844 C 80.015625 67.75 79.636719 67.371094 79.171875 67.371094 L 72.117188 67.371094 C 71.648438 67.371094 71.273438 67.75 71.273438 68.214844 L 71.273438 79.476562 C 71.273438 79.941406 71.648438 80.320312 72.117188 80.320312 C 72.582031 80.320312 72.960938 79.941406 72.960938 79.476562 L 72.960938 69.058594 C 72.960938 69.058594 78.328125 69.058594 78.328125 69.058594 L 78.328125 74.613281 C 78.328125 75.078125 78.707031 75.457031 79.171875 75.457031 C 79.636719 75.457031 80.015625 75.078125 80.015625 74.613281 Z M 80.015625 74.613281 " fill-opacity="1" fill-rule="evenodd"/><g transform="matrix(1, 0, 0, 1, 29, 90)"><g clip-path="url(#dd2573e405)"><g fill="#b59d14" fill-opacity="1"><g transform="translate(0.603061, 18.450696)"><g><path d="M 1.03125 0 L 1.03125 -0.3125 C 1.394531 -0.425781 1.632812 -0.671875 1.75 -1.046875 C 1.863281 -1.421875 1.921875 -2.003906 1.921875 -2.796875 L 1.921875 -12.609375 C 1.921875 -13.398438 1.863281 -13.984375 1.75 -14.359375 C 1.632812 -14.734375 1.394531 -14.984375 1.03125 -15.109375 L 1.03125 -15.40625 L 5.125 -15.40625 L 5.125 -15.109375 C 4.757812 -14.984375 4.519531 -14.734375 4.40625 -14.359375 C 4.300781 -13.984375 4.25 -13.398438 4.25 -12.609375 L 4.25 -2.796875 C 4.25 -2.003906 4.300781 -1.421875 4.40625 -1.046875 C 4.519531 -0.671875 4.757812 -0.425781 5.125 -0.3125 L 5.125 0 Z M 1.03125 0 "/></g></g></g><g fill="#b59d14" fill-opacity="1"><g transform="translate(6.766856, 18.450696)"><g><path d="M 12.640625 0.171875 L 2.3125 -12.859375 L 2.3125 -4.109375 C 2.3125 -3.222656 2.367188 -2.519531 2.484375 -2 C 2.597656 -1.488281 2.78125 -1.109375 3.03125 -0.859375 C 3.28125 -0.609375 3.597656 -0.425781 3.984375 -0.3125 L 3.984375 0 L 1.03125 0 L 1.03125 -0.3125 C 1.394531 -0.425781 1.632812 -0.671875 1.75 -1.046875 C 1.863281 -1.421875 1.921875 -2.003906 1.921875 -2.796875 L 1.921875 -12.609375 C 1.921875 -13.398438 1.84375 -13.984375 1.6875 -14.359375 C 1.539062 -14.734375 1.234375 -14.984375 0.765625 -15.109375 L 0.765625 -15.40625 L 3.265625 -15.40625 L 12.5 -3.828125 L 12.5 -11.296875 C 12.5 -12.191406 12.441406 -12.894531 12.328125 -13.40625 C 12.210938 -13.914062 12.03125 -14.296875 11.78125 -14.546875 C 11.53125 -14.796875 11.210938 -14.984375 10.828125 -15.109375 L 10.828125 -15.40625 L 13.796875 -15.40625 L 13.796875 -15.109375 C 13.429688 -14.984375 13.191406 -14.734375 13.078125 -14.359375 C 12.972656 -13.984375 12.921875 -13.398438 12.921875 -12.609375 L 12.921875 0.171875 Z M 12.640625 0.171875 "/></g></g></g><g fill="#b59d14" fill-opacity="1"><g transform="translate(21.339828, 18.450696)"><g><path d="M 6.296875 0.21875 C 5.160156 0.21875 4.109375 0.0625 3.140625 -0.25 C 2.171875 -0.5625 1.410156 -0.925781 0.859375 -1.34375 L 0.765625 -4.640625 L 1.0625 -4.6875 C 1.363281 -3.851562 1.78125 -3.101562 2.3125 -2.4375 C 2.851562 -1.769531 3.503906 -1.234375 4.265625 -0.828125 C 5.035156 -0.429688 5.90625 -0.234375 6.875 -0.234375 C 7.382812 -0.234375 7.859375 -0.335938 8.296875 -0.546875 C 8.734375 -0.765625 9.09375 -1.078125 9.375 -1.484375 C 9.65625 -1.898438 9.796875 -2.410156 9.796875 -3.015625 C 9.796875 -3.554688 9.640625 -4.03125 9.328125 -4.4375 C 9.023438 -4.84375 8.632812 -5.191406 8.15625 -5.484375 C 7.675781 -5.785156 7.171875 -6.050781 6.640625 -6.28125 C 6.117188 -6.507812 5.640625 -6.710938 5.203125 -6.890625 C 4.453125 -7.210938 3.757812 -7.535156 3.125 -7.859375 C 2.488281 -8.179688 1.976562 -8.59375 1.59375 -9.09375 C 1.21875 -9.601562 1.03125 -10.285156 1.03125 -11.140625 C 1.03125 -12.503906 1.539062 -13.582031 2.5625 -14.375 C 3.582031 -15.164062 4.957031 -15.5625 6.6875 -15.5625 C 7.507812 -15.5625 8.273438 -15.476562 8.984375 -15.3125 C 9.703125 -15.15625 10.347656 -14.929688 10.921875 -14.640625 L 11 -11.78125 L 10.765625 -11.6875 C 10.304688 -12.820312 9.640625 -13.6875 8.765625 -14.28125 C 7.898438 -14.882812 6.929688 -15.1875 5.859375 -15.1875 C 4.972656 -15.1875 4.222656 -14.941406 3.609375 -14.453125 C 3.003906 -13.960938 2.703125 -13.285156 2.703125 -12.421875 C 2.703125 -11.929688 2.820312 -11.503906 3.0625 -11.140625 C 3.3125 -10.785156 3.632812 -10.472656 4.03125 -10.203125 C 4.4375 -9.941406 4.867188 -9.710938 5.328125 -9.515625 C 5.796875 -9.316406 6.25 -9.128906 6.6875 -8.953125 C 7.25 -8.734375 7.816406 -8.5 8.390625 -8.25 C 8.972656 -8 9.503906 -7.707031 9.984375 -7.375 C 10.472656 -7.039062 10.863281 -6.632812 11.15625 -6.15625 C 11.457031 -5.6875 11.609375 -5.125 11.609375 -4.46875 C 11.609375 -3.71875 11.453125 -3.046875 11.140625 -2.453125 C 10.828125 -1.867188 10.414062 -1.378906 9.90625 -0.984375 C 9.394531 -0.585938 8.820312 -0.285156 8.1875 -0.078125 C 7.5625 0.117188 6.929688 0.21875 6.296875 0.21875 Z M 6.296875 0.21875 "/></g></g></g><g fill="#b59d14" fill-opacity="1"><g transform="translate(33.513323, 18.450696)"><g><path d="M 1.03125 0 L 1.03125 -0.3125 C 1.394531 -0.425781 1.632812 -0.671875 1.75 -1.046875 C 1.863281 -1.421875 1.921875 -2.003906 1.921875 -2.796875 L 1.921875 -12.609375 C 1.921875 -13.398438 1.863281 -13.984375 1.75 -14.359375 C 1.632812 -14.734375 1.394531 -14.984375 1.03125 -15.109375 L 1.03125 -15.40625 L 5.65625 -15.40625 C 6.914062 -15.40625 7.945312 -15.269531 8.75 -15 C 9.550781 -14.726562 10.175781 -14.375 10.625 -13.9375 C 11.070312 -13.507812 11.382812 -13.046875 11.5625 -12.546875 C 11.738281 -12.046875 11.828125 -11.578125 11.828125 -11.140625 C 11.828125 -10.234375 11.597656 -9.390625 11.140625 -8.609375 C 10.679688 -7.828125 9.972656 -7.203125 9.015625 -6.734375 C 8.066406 -6.273438 6.835938 -6.046875 5.328125 -6.046875 L 4.25 -6.046875 L 4.25 -2.796875 C 4.25 -2.003906 4.300781 -1.421875 4.40625 -1.046875 C 4.519531 -0.671875 4.757812 -0.425781 5.125 -0.3125 L 5.125 0 Z M 4.25 -6.40625 L 5.21875 -6.40625 C 6.65625 -6.40625 7.695312 -6.785156 8.34375 -7.546875 C 9 -8.316406 9.328125 -9.320312 9.328125 -10.5625 C 9.328125 -11.03125 9.257812 -11.523438 9.125 -12.046875 C 9 -12.566406 8.769531 -13.054688 8.4375 -13.515625 C 8.113281 -13.972656 7.664062 -14.34375 7.09375 -14.625 C 6.519531 -14.914062 5.800781 -15.0625 4.9375 -15.0625 C 4.6875 -15.0625 4.457031 -15.046875 4.25 -15.015625 Z M 4.25 -6.40625 "/></g></g></g><g fill="#b59d14" fill-opacity="1"><g transform="translate(45.818898, 18.450696)"><g><path d="M 1.03125 0 L 1.03125 -0.3125 C 1.394531 -0.425781 1.632812 -0.671875 1.75 -1.046875 C 1.863281 -1.421875 1.921875 -2.003906 1.921875 -2.796875 L 1.921875 -12.609375 C 1.921875 -13.398438 1.863281 -13.984375 1.75 -14.359375 C 1.632812 -14.734375 1.394531 -14.984375 1.03125 -15.109375 L 1.03125 -15.40625 L 11.609375 -15.40625 L 11.84375 -12.3125 L 11.5625 -12.234375 C 11.113281 -13.328125 10.519531 -14.070312 9.78125 -14.46875 C 9.039062 -14.863281 8.054688 -15.0625 6.828125 -15.0625 L 4.25 -15.0625 L 4.25 -8.453125 L 6.359375 -8.453125 C 7.253906 -8.453125 7.957031 -8.507812 8.46875 -8.625 C 8.988281 -8.75 9.375 -8.9375 9.625 -9.1875 C 9.875 -9.4375 10.054688 -9.75 10.171875 -10.125 L 10.484375 -10.125 L 10.484375 -6.421875 L 10.171875 -6.421875 C 10.054688 -6.804688 9.875 -7.125 9.625 -7.375 C 9.375 -7.625 8.988281 -7.804688 8.46875 -7.921875 C 7.957031 -8.046875 7.253906 -8.109375 6.359375 -8.109375 L 4.25 -8.109375 L 4.25 -1.453125 C 4.25 -0.722656 4.613281 -0.359375 5.34375 -0.359375 L 7.46875 -0.359375 C 8.582031 -0.359375 9.519531 -0.5625 10.28125 -0.96875 C 11.039062 -1.375 11.628906 -2.140625 12.046875 -3.265625 L 12.328125 -3.21875 L 12.171875 0 Z M 1.03125 0 "/></g></g></g><g fill="#b59d14" fill-opacity="1"><g transform="translate(58.916962, 18.450696)"><g><path d="M 9.6875 0.21875 C 7.9375 0.21875 6.421875 -0.078125 5.140625 -0.671875 C 3.867188 -1.265625 2.890625 -2.128906 2.203125 -3.265625 C 1.523438 -4.398438 1.1875 -5.789062 1.1875 -7.4375 C 1.1875 -8.550781 1.394531 -9.597656 1.8125 -10.578125 C 2.226562 -11.554688 2.828125 -12.414062 3.609375 -13.15625 C 4.398438 -13.90625 5.34375 -14.492188 6.4375 -14.921875 C 7.53125 -15.347656 8.753906 -15.5625 10.109375 -15.5625 C 10.648438 -15.5625 11.238281 -15.523438 11.875 -15.453125 C 12.507812 -15.378906 13.117188 -15.265625 13.703125 -15.109375 C 14.285156 -14.953125 14.765625 -14.742188 15.140625 -14.484375 L 15.234375 -11.578125 L 14.96875 -11.515625 C 14.675781 -12.273438 14.242188 -12.921875 13.671875 -13.453125 C 13.097656 -13.992188 12.453125 -14.410156 11.734375 -14.703125 C 11.023438 -14.992188 10.289062 -15.140625 9.53125 -15.140625 C 8.351562 -15.140625 7.3125 -14.882812 6.40625 -14.375 C 5.507812 -13.863281 4.800781 -13.113281 4.28125 -12.125 C 3.769531 -11.132812 3.515625 -9.90625 3.515625 -8.4375 C 3.515625 -7.375 3.671875 -6.347656 3.984375 -5.359375 C 4.296875 -4.378906 4.738281 -3.503906 5.3125 -2.734375 C 5.894531 -1.960938 6.609375 -1.351562 7.453125 -0.90625 C 8.296875 -0.457031 9.253906 -0.234375 10.328125 -0.234375 C 11.554688 -0.234375 12.585938 -0.578125 13.421875 -1.265625 C 14.265625 -1.960938 14.882812 -2.882812 15.28125 -4.03125 L 15.5625 -3.984375 L 15.21875 -0.84375 C 14.625 -0.570312 13.890625 -0.328125 13.015625 -0.109375 C 12.148438 0.109375 11.039062 0.21875 9.6875 0.21875 Z M 9.6875 0.21875 "/></g></g></g><g fill="#b59d14" fill-opacity="1"><g transform="translate(75.449138, 18.450696)"><g><path d="M 4.140625 0 L 4.140625 -0.3125 C 4.503906 -0.425781 4.738281 -0.671875 4.84375 -1.046875 C 4.957031 -1.421875 5.015625 -2.003906 5.015625 -2.796875 L 5.015625 -15.015625 L 4.34375 -15.015625 C 3.351562 -15.015625 2.578125 -14.847656 2.015625 -14.515625 C 1.460938 -14.191406 0.984375 -13.585938 0.578125 -12.703125 L 0.3125 -12.75 L 0.4375 -15.40625 L 11.90625 -15.40625 L 12.046875 -12.75 L 11.78125 -12.703125 C 11.363281 -13.585938 10.875 -14.191406 10.3125 -14.515625 C 9.757812 -14.847656 8.992188 -15.015625 8.015625 -15.015625 L 7.375 -15.015625 L 7.375 -2.796875 C 7.375 -2.003906 7.425781 -1.421875 7.53125 -1.046875 C 7.644531 -0.671875 7.882812 -0.425781 8.25 -0.3125 L 8.25 0 Z M 4.140625 0 "/></g></g></g><g fill="#b59d14" fill-opacity="1"><g transform="translate(87.77673, 18.450696)"><g><path d="M 1.03125 0 L 1.03125 -0.3125 C 1.394531 -0.425781 1.632812 -0.671875 1.75 -1.046875 C 1.863281 -1.421875 1.921875 -2.003906 1.921875 -2.796875 L 1.921875 -12.609375 C 1.921875 -13.398438 1.863281 -13.984375 1.75 -14.359375 C 1.632812 -14.734375 1.394531 -14.984375 1.03125 -15.109375 L 1.03125 -15.40625 L 5.125 -15.40625 L 5.125 -15.109375 C 4.757812 -14.984375 4.519531 -14.734375 4.40625 -14.359375 C 4.300781 -13.984375 4.25 -13.398438 4.25 -12.609375 L 4.25 -2.796875 C 4.25 -2.003906 4.300781 -1.421875 4.40625 -1.046875 C 4.519531 -0.671875 4.757812 -0.425781 5.125 -0.3125 L 5.125 0 Z M 1.03125 0 "/></g></g></g><g fill="#b59d14" fill-opacity="1"><g transform="translate(93.940526, 18.450696)"><g><path d="M 9.078125 0.21875 C 8.128906 0.21875 7.191406 0.0625 6.265625 -0.25 C 5.347656 -0.5625 4.503906 -1.046875 3.734375 -1.703125 C 2.960938 -2.359375 2.34375 -3.1875 1.875 -4.1875 C 1.414062 -5.195312 1.1875 -6.390625 1.1875 -7.765625 C 1.1875 -8.859375 1.375 -9.875 1.75 -10.8125 C 2.132812 -11.757812 2.675781 -12.585938 3.375 -13.296875 C 4.070312 -14.015625 4.90625 -14.578125 5.875 -14.984375 C 6.84375 -15.390625 7.910156 -15.59375 9.078125 -15.59375 C 9.992188 -15.59375 10.914062 -15.429688 11.84375 -15.109375 C 12.78125 -14.785156 13.628906 -14.296875 14.390625 -13.640625 C 15.160156 -12.984375 15.773438 -12.15625 16.234375 -11.15625 C 16.703125 -10.164062 16.9375 -8.992188 16.9375 -7.640625 C 16.9375 -6.304688 16.703125 -5.140625 16.234375 -4.140625 C 15.773438 -3.148438 15.160156 -2.332031 14.390625 -1.6875 C 13.617188 -1.039062 12.769531 -0.5625 11.84375 -0.25 C 10.914062 0.0625 9.992188 0.21875 9.078125 0.21875 Z M 3.484375 -9.109375 C 3.554688 -8.015625 3.78125 -6.945312 4.15625 -5.90625 C 4.53125 -4.875 5.015625 -3.953125 5.609375 -3.140625 C 6.210938 -2.328125 6.914062 -1.675781 7.71875 -1.1875 C 8.519531 -0.707031 9.390625 -0.46875 10.328125 -0.46875 C 11.453125 -0.46875 12.34375 -0.71875 13 -1.21875 C 13.664062 -1.726562 14.132812 -2.394531 14.40625 -3.21875 C 14.675781 -4.039062 14.773438 -4.9375 14.703125 -5.90625 C 14.617188 -7.070312 14.398438 -8.195312 14.046875 -9.28125 C 13.691406 -10.375 13.21875 -11.351562 12.625 -12.21875 C 12.03125 -13.082031 11.335938 -13.765625 10.546875 -14.265625 C 9.753906 -14.765625 8.878906 -15.015625 7.921875 -15.015625 C 6.921875 -15.015625 6.078125 -14.769531 5.390625 -14.28125 C 4.703125 -13.800781 4.191406 -13.113281 3.859375 -12.21875 C 3.535156 -11.332031 3.410156 -10.296875 3.484375 -9.109375 Z M 3.484375 -9.109375 "/></g></g></g><g fill="#b59d14" fill-opacity="1"><g transform="translate(111.991631, 18.450696)"><g><path d="M 12.640625 0.171875 L 2.3125 -12.859375 L 2.3125 -4.109375 C 2.3125 -3.222656 2.367188 -2.519531 2.484375 -2 C 2.597656 -1.488281 2.78125 -1.109375 3.03125 -0.859375 C 3.28125 -0.609375 3.597656 -0.425781 3.984375 -0.3125 L 3.984375 0 L 1.03125 0 L 1.03125 -0.3125 C 1.394531 -0.425781 1.632812 -0.671875 1.75 -1.046875 C 1.863281 -1.421875 1.921875 -2.003906 1.921875 -2.796875 L 1.921875 -12.609375 C 1.921875 -13.398438 1.84375 -13.984375 1.6875 -14.359375 C 1.539062 -14.734375 1.234375 -14.984375 0.765625 -15.109375 L 0.765625 -15.40625 L 3.265625 -15.40625 L 12.5 -3.828125 L 12.5 -11.296875 C 12.5 -12.191406 12.441406 -12.894531 12.328125 -13.40625 C 12.210938 -13.914062 12.03125 -14.296875 11.78125 -14.546875 C 11.53125 -14.796875 11.210938 -14.984375 10.828125 -15.109375 L 10.828125 -15.40625 L 13.796875 -15.40625 L 13.796875 -15.109375 C 13.429688 -14.984375 13.191406 -14.734375 13.078125 -14.359375 C 12.972656 -13.984375 12.921875 -13.398438 12.921875 -12.609375 L 12.921875 0.171875 Z M 12.640625 0.171875 "/></g></g></g></g></g><g transform="matrix(1, 0, 0, 1, 57, 109)"><g clip-path="url(#51a522f45d)"><g fill="#b59d14" fill-opacity="1"><g transform="translate(1.521003, 9.228464)"><g><path d="M 5.3125 0 L 4.171875 0 L 3.75 -1.28125 L 1.625 -1.28125 L 1.203125 0 L 0.078125 0 L 2 -5.546875 L 3.40625 -5.546875 Z M 2.640625 -4.390625 L 1.921875 -2.203125 L 3.453125 -2.203125 L 2.734375 -4.390625 Z M 2.640625 -4.390625 "/></g></g></g><g fill="#b59d14" fill-opacity="1"><g transform="translate(12.070417, 9.228464)"><g><path d="M 3.03125 0.078125 C 2.519531 0.078125 2.066406 -0.0234375 1.671875 -0.234375 C 1.285156 -0.453125 0.984375 -0.769531 0.765625 -1.1875 C 0.546875 -1.613281 0.4375 -2.140625 0.4375 -2.765625 C 0.4375 -3.390625 0.546875 -3.914062 0.765625 -4.34375 C 0.984375 -4.769531 1.285156 -5.085938 1.671875 -5.296875 C 2.066406 -5.515625 2.519531 -5.625 3.03125 -5.625 C 3.5625 -5.625 4.015625 -5.519531 4.390625 -5.3125 C 4.765625 -5.101562 5.03125 -4.785156 5.1875 -4.359375 L 4.390625 -3.875 L 4.296875 -3.875 C 4.171875 -4.15625 4.003906 -4.359375 3.796875 -4.484375 C 3.597656 -4.609375 3.34375 -4.671875 3.03125 -4.671875 C 2.570312 -4.671875 2.210938 -4.519531 1.953125 -4.21875 C 1.691406 -3.914062 1.5625 -3.429688 1.5625 -2.765625 C 1.5625 -2.109375 1.691406 -1.628906 1.953125 -1.328125 C 2.210938 -1.023438 2.570312 -0.875 3.03125 -0.875 C 3.75 -0.875 4.191406 -1.222656 4.359375 -1.921875 L 4.453125 -1.921875 L 5.25 -1.5 C 5.101562 -0.96875 4.84375 -0.570312 4.46875 -0.3125 C 4.101562 -0.0507812 3.625 0.078125 3.03125 0.078125 Z M 3.03125 0.078125 "/></g></g></g><g fill="#b59d14" fill-opacity="1"><g transform="translate(22.653948, 9.228464)"><g><path d="M 5.3125 0 L 4.171875 0 L 3.75 -1.28125 L 1.625 -1.28125 L 1.203125 0 L 0.078125 0 L 2 -5.546875 L 3.40625 -5.546875 Z M 2.640625 -4.390625 L 1.921875 -2.203125 L 3.453125 -2.203125 L 2.734375 -4.390625 Z M 2.640625 -4.390625 "/></g></g></g><g fill="#b59d14" fill-opacity="1"><g transform="translate(33.203362, 9.228464)"><g><path d="M 2.71875 -5.546875 C 3.613281 -5.546875 4.296875 -5.3125 4.765625 -4.84375 C 5.242188 -4.375 5.484375 -3.679688 5.484375 -2.765625 C 5.484375 -1.859375 5.242188 -1.171875 4.765625 -0.703125 C 4.296875 -0.234375 3.613281 0 2.71875 0 L 0.71875 0 L 0.71875 -5.546875 Z M 2.65625 -0.921875 C 3.21875 -0.921875 3.640625 -1.066406 3.921875 -1.359375 C 4.210938 -1.648438 4.359375 -2.117188 4.359375 -2.765625 C 4.359375 -3.421875 4.210938 -3.894531 3.921875 -4.1875 C 3.640625 -4.476562 3.21875 -4.625 2.65625 -4.625 L 1.8125 -4.625 L 1.8125 -0.921875 Z M 2.65625 -0.921875 "/></g></g></g><g fill="#b59d14" fill-opacity="1"><g transform="translate(44.27592, 9.228464)"><g><path d="M 1.8125 -2.4375 L 1.8125 -0.921875 L 4.46875 -0.921875 L 4.46875 0 L 0.71875 0 L 0.71875 -5.546875 L 4.40625 -5.546875 L 4.40625 -4.625 L 1.8125 -4.625 L 1.8125 -3.328125 L 4.078125 -3.328125 L 4.078125 -2.4375 Z M 1.8125 -2.4375 "/></g></g></g><g fill="#b59d14" fill-opacity="1"><g transform="translate(54.188462, 9.228464)"><g><path d="M 1.71875 0 L 0.71875 0 L 0.71875 -5.546875 L 2.15625 -5.546875 L 3.5625 -1.46875 L 3.640625 -1.46875 L 5.03125 -5.546875 L 6.4375 -5.546875 L 6.4375 0 L 5.390625 0 L 5.390625 -3.65625 L 5.296875 -3.671875 L 4.015625 0 L 3.109375 0 L 1.8125 -3.671875 L 1.71875 -3.65625 Z M 1.71875 0 "/></g></g></g><g fill="#b59d14" fill-opacity="1"><g transform="translate(66.489273, 9.228464)"><g><path d="M 3.03125 0 L 1.9375 0 L 1.9375 -2.171875 L 0.03125 -5.546875 L 1.203125 -5.546875 L 2.46875 -3.359375 L 2.5625 -3.359375 L 3.796875 -5.546875 L 4.953125 -5.546875 L 3.03125 -2.171875 Z M 3.03125 0 "/></g></g></g></g></g><g transform="matrix(1, 0, 0, 1, 39, 81)"><g clip-path="url(#9ca2ea4f2f)"><g fill="#b59d14" fill-opacity="1"><g transform="translate(1.022263, 6.667188)"><g><path d="M 3.296875 -4.109375 L 3.296875 -3.4375 L 2.109375 -3.4375 L 2.109375 0 L 1.296875 0 L 1.296875 -3.4375 L 0.109375 -3.4375 L 0.109375 -4.109375 Z M 3.296875 -4.109375 "/></g></g></g><g fill="#b59d14" fill-opacity="1"><g transform="translate(4.432183, 6.667188)"><g><path d="M 3.1875 -2.5625 L 3.1875 -4.109375 L 4 -4.109375 L 4 0 L 3.1875 0 L 3.1875 -1.875 L 1.34375 -1.875 L 1.34375 0 L 0.53125 0 L 0.53125 -4.109375 L 1.34375 -4.109375 L 1.34375 -2.5625 Z M 3.1875 -2.5625 "/></g></g></g><g clip-path="url(#839b63ebeb)"><g fill="#b59d14" fill-opacity="1"><g transform="translate(8.970304, 6.667188)"><g><path d="M 1.34375 -1.8125 L 1.34375 -0.6875 L 3.3125 -0.6875 L 3.3125 0 L 0.53125 0 L 0.53125 -4.109375 L 3.265625 -4.109375 L 3.265625 -3.4375 L 1.34375 -3.4375 L 1.34375 -2.46875 L 3.03125 -2.46875 L 3.03125 -1.8125 Z M 1.34375 -1.8125 "/></g></g></g></g></g></g></svg>